<svg width="25" height="25" viewBox="0 0 25 25" fill="none" xmlns="http://www.w3.org/2000/svg">
<path fill-rule="evenodd" clip-rule="evenodd" d="M12.5 25C19.4036 25 25 19.4036 25 12.5C25 5.59644 19.4036 0 12.5 0C5.59644 0 0 5.59644 0 12.5C0 19.4036 5.59644 25 12.5 25ZM6.18518 6.98765C6.18518 7.53312 6.62737 7.97531 7.17284 7.97531H9.74074V9.45679H8.75309V10.3457H6.18518V9.35802H5V14.6914H6.18518V13.9012H8.75309V14.8889H12.4074V13.9012H15.4587L15.4666 13.903L15.4744 13.9047C15.4911 13.9085 15.5154 13.9143 15.5456 13.9221C15.6061 13.9376 15.6894 13.9611 15.7806 13.9926C15.9674 14.0572 16.1709 14.1501 16.2882 14.2674C16.4825 14.4617 16.5297 14.6394 16.5974 14.8946C16.6153 14.9619 16.6346 15.0348 16.6584 15.1147C16.7743 15.5032 16.7757 16.0312 16.7455 16.471C16.7305 16.6891 16.7081 16.8823 16.6893 17.0209L16.6837 17.0617H15.6667V18.2469H21V17.0617H20.0357L20.0435 16.9855C20.0612 16.8075 20.0824 16.5592 20.0966 16.2776C20.1248 15.7168 20.1255 15.0147 20.0102 14.4733C19.9834 14.3476 19.9594 14.2273 19.9363 14.1116C19.8663 13.7604 19.8046 13.4508 19.6982 13.1565C19.5543 12.7587 19.329 12.3869 18.897 11.9549C18.0333 11.0911 17.2145 10.7659 15.9878 10.4476C15.2811 10.2643 14.3544 10.2653 13.6118 10.3102C13.239 10.3328 12.9098 10.3666 12.6737 10.3947C12.5627 10.408 12.4722 10.42 12.4074 10.429V9.45679H11.6173V7.97531H14.0864C14.6319 7.97531 15.0741 7.53312 15.0741 6.98765C15.0741 6.44219 14.6319 6 14.0864 6H7.17284C6.62737 6 6.18518 6.44219 6.18518 6.98765Z" fill="url(#paint0_linear_7938_58562)"/>
<defs>
<linearGradient id="paint0_linear_7938_58562" x1="4.55224" y1="19.1761" x2="30.9317" y2="-13.1907" gradientUnits="userSpaceOnUse">
<stop stop-color="#03C17D"/>
<stop offset="1" stop-color="#97E81C"/>
</linearGradient>
</defs>
</svg>
