<svg width="65" height="65" viewBox="0 0 65 65" fill="none" xmlns="http://www.w3.org/2000/svg">
<circle cx="32.5" cy="32.5" r="32.5" fill="url(#paint0_linear_4454_20327)"/>
<path d="M17.8123 21H41.6307C41.9347 21 42.2262 21.1184 42.4415 21.3299C42.6569 21.5413 42.7774 21.8277 42.7774 22.1262V29.6569H48.6287C48.8631 29.6569 49.0537 29.8441 49.0537 30.0743V40.6066C49.0537 40.8368 48.8636 41.024 48.6287 41.024H46.7192C46.6063 41.024 46.4982 40.98 46.4188 40.9016C46.339 40.8232 46.2947 40.7174 46.2947 40.6066V33.1528C46.2947 32.9226 46.1046 32.7354 45.8697 32.7354H42.7815V39.8998C42.7815 40.1989 42.6594 40.4852 42.4441 40.6962C42.2288 40.9071 41.9362 41.025 41.6318 41.0235H17.8133C17.5094 41.0235 17.2178 40.9051 17.0025 40.6942C16.7872 40.4832 16.6667 40.1968 16.6667 39.8983V22.1262C16.6667 21.8277 16.7872 21.5413 17.0025 21.3299C17.2173 21.1184 17.5094 21 17.8133 21H17.8123Z" fill="white"/>
<path d="M45.3711 46.8668C45.3711 48.2288 46.4065 49.3327 47.6846 49.3327C48.9626 49.3327 49.999 48.2288 49.999 46.8668C49.999 45.6339 48.1059 43.0248 47.7423 42.5412C47.7294 42.5209 47.7072 42.5088 47.683 42.5088C47.6588 42.5088 47.6367 42.5209 47.6238 42.5407C47.2663 43.0243 45.3711 45.6329 45.3711 46.8663V46.8668Z" fill="white"/>
<defs>
<linearGradient id="paint0_linear_4454_20327" x1="0" y1="65" x2="65" y2="0" gradientUnits="userSpaceOnUse">
<stop stop-color="#03C17D"/>
<stop offset="1" stop-color="#97E81C"/>
</linearGradient>
</defs>
</svg>
