<svg width="65" height="65" viewBox="0 0 65 65" fill="none" xmlns="http://www.w3.org/2000/svg">
<circle cx="32.5" cy="32.5" r="32.5" fill="url(#paint0_linear_4454_20325)"/>
<path d="M35.8989 44.3274C35.4494 43.8789 35.2337 43.3371 35.2517 42.7018C35.2696 42.0665 35.5041 41.5247 35.955 41.0762L42.3033 34.7422H17.2472C16.6105 34.7422 16.0764 34.5269 15.645 34.0964C15.2135 33.6659 14.9985 33.1338 15 32.5C15 31.8647 15.2157 31.3318 15.6472 30.9013C16.0787 30.4709 16.612 30.2564 17.2472 30.2578H42.3033L35.8989 23.8677C35.4494 23.4193 35.2247 22.8864 35.2247 22.2691C35.2247 21.6517 35.4494 21.1196 35.8989 20.6726C36.3483 20.2242 36.8824 20 37.5011 20C38.1198 20 38.6532 20.2242 39.1011 20.6726L49.382 30.9305C49.6067 31.1547 49.7663 31.3976 49.8606 31.6592C49.955 31.9208 50.0015 32.201 50 32.5C50 32.799 49.9528 33.0792 49.8584 33.3408C49.764 33.6024 49.6052 33.8453 49.382 34.0695L39.0449 44.3834C38.6329 44.7945 38.1183 45 37.5011 45C36.8839 45 36.3498 44.7758 35.8989 44.3274Z" fill="white"/>
<defs>
<linearGradient id="paint0_linear_4454_20325" x1="0" y1="65" x2="65" y2="0" gradientUnits="userSpaceOnUse">
<stop stop-color="#03C17D"/>
<stop offset="1" stop-color="#97E81C"/>
</linearGradient>
</defs>
</svg>
