<svg width="415" height="204" viewBox="0 0 415 204" fill="none" xmlns="http://www.w3.org/2000/svg">
<path d="M240.82 71.3551L223.583 120.807L206.487 71.3551H186.424L213.269 142H234.039L260.884 71.3551H240.82ZM310.44 71.3551V109.503C310.44 121.796 303.799 127.023 294.898 127.023C286.703 127.023 280.91 122.078 280.91 112.47V71.3551H262.684V114.731C262.684 133.523 274.411 143.978 289.387 143.978C298.854 143.978 306.201 140.446 310.44 134.088V142H328.666V71.3551H310.44ZM339.501 142H357.727V38.8584H339.501V142ZM408.96 88.875V71.3551H392.994V51.5745L374.768 57.0848V71.3551H362.475V88.875H374.768V118.263C374.768 137.337 383.386 144.826 408.96 142V125.469C398.504 126.034 392.994 125.893 392.994 118.263V88.875H408.96Z" fill="white"/>
<path fill-rule="evenodd" clip-rule="evenodd" d="M15.2733 35.2344C7.03929 35.2344 0.552484 42.252 1.19872 50.4605L7.88139 135.345L54.0025 131.87L105.222 80.0004L80.4236 129.88L120.646 126.85L114.93 48.3275C114.393 40.9475 108.249 35.2344 100.849 35.2344H15.2733Z" fill="#2D00FF"/>
<path fill-rule="evenodd" clip-rule="evenodd" d="M50.3809 62.1875C45.4461 62.1875 40.9189 64.9259 38.6278 69.2966L8.52282 126.728C4.93907 133.564 9.89778 141.762 17.6168 141.762H44.2347L105.222 80.0004L74.5163 141.762H115.077C118.895 141.762 122.398 139.643 124.171 136.262L154.795 77.8406C158.526 70.7227 153.363 62.1875 145.327 62.1875H50.3809Z" fill="#0053FF"/>
<path d="M105.5 141.001L44 203.031L74.8542 141.001H105.5Z" fill="#0053FF"/>
</svg>
