<svg width="65" height="65" viewBox="0 0 65 65" fill="none" xmlns="http://www.w3.org/2000/svg">
<circle cx="32.5" cy="32.5" r="32.5" fill="url(#paint0_linear_4454_20326)"/>
<path d="M29.1011 44.3274C29.5506 43.8789 29.7663 43.3371 29.7483 42.7018C29.7304 42.0665 29.4959 41.5247 29.045 41.0762L22.6967 34.7422H47.7528C48.3895 34.7422 48.9236 34.5269 49.355 34.0964C49.7865 33.6659 50.0015 33.1338 50 32.5C50 31.8647 49.7843 31.3318 49.3528 30.9013C48.9213 30.4709 48.388 30.2564 47.7528 30.2578H22.6967L29.1011 23.8677C29.5506 23.4193 29.7753 22.8864 29.7753 22.2691C29.7753 21.6517 29.5506 21.1196 29.1011 20.6726C28.6517 20.2242 28.1176 20 27.4989 20C26.8802 20 26.3468 20.2242 25.8989 20.6726L15.618 30.9305C15.3933 31.1547 15.2337 31.3976 15.1394 31.6592C15.045 31.9208 14.9985 32.201 15 32.5C15 32.799 15.0472 33.0792 15.1416 33.3408C15.236 33.6024 15.3948 33.8453 15.618 34.0695L25.9551 44.3834C26.3671 44.7945 26.8817 45 27.4989 45C28.1161 45 28.6502 44.7758 29.1011 44.3274Z" fill="white"/>
<defs>
<linearGradient id="paint0_linear_4454_20326" x1="0" y1="65" x2="65" y2="0" gradientUnits="userSpaceOnUse">
<stop stop-color="#03C17D"/>
<stop offset="1" stop-color="#97E81C"/>
</linearGradient>
</defs>
</svg>
