<svg width="435" height="165" viewBox="0 0 435 165" fill="none" xmlns="http://www.w3.org/2000/svg">
<path d="M259.953 79.5462L289.906 38.1482V25.9973H236.922V43.0932H265.322L235.51 84.4912V96.6422H291.319V79.5462H259.953ZM321.057 19.0741C326.285 19.0741 330.524 14.8354 330.524 9.6077C330.524 4.3799 326.285 0 321.057 0C315.83 0 311.45 4.3799 311.45 9.6077C311.45 14.8354 315.83 19.0741 321.057 19.0741ZM347.902 19.0741C353.13 19.0741 357.369 14.8354 357.369 9.6077C357.369 4.3799 353.13 0 347.902 0C342.675 0 338.295 4.3799 338.295 9.6077C338.295 14.8354 342.675 19.0741 347.902 19.0741ZM349.315 25.9973V64.1452C349.315 76.4382 342.675 81.6652 333.773 81.6652C325.579 81.6652 319.786 76.7202 319.786 67.1122V25.9973H301.559V69.3732C301.559 88.1652 313.286 98.6202 328.263 98.6202C337.73 98.6202 345.077 95.0882 349.315 88.7302V96.6422H367.542V25.9973H349.315ZM398.496 46.0602C398.496 42.2452 402.17 40.2672 406.691 40.2672C411.919 40.2672 415.875 42.9522 417.994 47.4732L433.536 38.9962C428.026 29.2472 418.136 24.0192 406.691 24.0192C392.138 24.0192 379.846 32.0732 379.846 46.4842C379.846 71.3512 416.299 65.7002 416.299 76.0142C416.299 80.1112 412.343 82.0892 406.55 82.0892C399.485 82.0892 394.682 78.6982 392.704 72.9052L376.879 81.8072C381.966 92.6862 392.421 98.6202 406.55 98.6202C421.668 98.6202 434.949 91.2732 434.949 76.0142C434.949 50.0162 398.496 56.5162 398.496 46.0602Z" fill="#060C20"/>
<path fill-rule="evenodd" clip-rule="evenodd" d="M108 104.641H164.001C169.539 104.641 174.952 102.998 179.557 99.9213C184.161 96.8443 187.75 92.4713 189.869 87.3553C191.988 82.2383 192.542 76.6083 191.461 71.1773C190.381 65.7463 187.714 60.7573 183.798 56.8413C179.882 52.9253 174.892 50.2593 169.461 49.1783C164.029 48.0983 158.4 48.6533 153.283 50.7723C148.167 52.8923 143.794 56.4803 140.718 61.0853C137.641 65.6903 135.999 71.1033 135.999 76.6413C135.994 84.0653 133.042 91.1843 127.792 96.4343C122.543 101.684 115.424 104.635 108 104.641Z" fill="#009EFF"/>
<path fill-rule="evenodd" clip-rule="evenodd" d="M97.5 101.641L96 104.641L66 164.641L141.5 92.1406L97.5 101.641Z" fill="#0053FF"/>
<path fill-rule="evenodd" clip-rule="evenodd" d="M96.0002 104.64H108C104.189 104.637 100.441 104.03 96.8838 102.873L96.0002 104.64ZM66.0003 104.64L79.7303 90.9103C74.7546 84.596 72.0068 76.7604 72 68.6403C72 61.5203 69.8887 54.5603 65.9329 48.6393C61.9772 42.7193 56.3548 38.1053 49.7766 35.3803C43.1985 32.6563 35.9601 31.9433 28.9768 33.3323C21.9935 34.7213 15.5789 38.1493 10.5442 43.1843C5.50948 48.2193 2.08081 54.6333 0.691746 61.6173C-0.697322 68.6003 0.0155985 75.8383 2.74035 82.4173C5.46511 88.9953 10.0793 94.6173 15.9995 98.5733C21.9197 102.529 28.8799 104.64 36 104.64H66.0003Z" fill="#2D00FF"/>
<path fill-rule="evenodd" clip-rule="evenodd" d="M108 2.64062C79.8335 2.64062 57 25.4741 57 53.6406C57 70.0177 64.7193 84.5916 76.7178 93.9228L126 44.6406L96.6354 103.37C97.088 103.473 97.5429 103.57 98 103.661L113 117.141L135.635 96.5116C140.399 93.4346 144.617 89.5856 148.112 85.1406C154.932 76.4676 159 65.5296 159 53.6406C159 25.4741 136.167 2.64062 108 2.64062Z" fill="#0053FF"/>
</svg>
