<svg width="437" height="252" viewBox="0 0 437 252" fill="none" xmlns="http://www.w3.org/2000/svg">
<path d="M259.953 150.904L289.906 109.506V97.3551H236.922V114.451H265.322L235.51 155.849V168H291.319V150.904H259.953ZM321.057 90.4319C326.285 90.4319 330.524 86.1932 330.524 80.9655C330.524 75.7377 326.285 71.3578 321.057 71.3578C315.83 71.3578 311.45 75.7377 311.45 80.9655C311.45 86.1932 315.83 90.4319 321.057 90.4319ZM347.902 90.4319C353.13 90.4319 357.369 86.1932 357.369 80.9655C357.369 75.7377 353.13 71.3578 347.902 71.3578C342.675 71.3578 338.295 75.7377 338.295 80.9655C338.295 86.1932 342.675 90.4319 347.902 90.4319ZM349.315 97.3551V135.503C349.315 147.796 342.675 153.023 333.773 153.023C325.579 153.023 319.786 148.078 319.786 138.47V97.3551H301.559V140.731C301.559 159.523 313.286 169.978 328.263 169.978C337.73 169.978 345.077 166.446 349.315 160.088V168H367.542V97.3551H349.315ZM398.496 117.418C398.496 113.603 402.17 111.625 406.691 111.625C411.919 111.625 415.875 114.31 417.994 118.831L433.536 110.354C428.026 100.605 418.136 95.377 406.691 95.377C392.138 95.377 379.846 103.431 379.846 117.842C379.846 142.709 416.299 137.058 416.299 147.372C416.299 151.469 412.343 153.447 406.55 153.447C399.485 153.447 394.682 150.056 392.704 144.263L376.879 153.165C381.966 164.044 392.421 169.978 406.55 169.978C421.668 169.978 434.949 162.631 434.949 147.372C434.949 121.374 398.496 127.874 398.496 117.418Z" fill="#060C20"/>
<g clip-path="url(#clip0_2674_46672)">
<path fill-rule="evenodd" clip-rule="evenodd" d="M108 176.001H164.001C169.539 176.001 174.952 174.358 179.557 171.281C184.161 168.204 187.75 163.831 189.869 158.715C191.988 153.598 192.542 147.968 191.461 142.537C190.381 137.106 187.714 132.117 183.798 128.201C179.882 124.285 174.892 121.619 169.461 120.538C164.029 119.458 158.4 120.013 153.283 122.132C148.167 124.252 143.794 127.84 140.718 132.445C137.641 137.05 135.999 142.463 135.999 148.001C135.994 155.425 133.042 162.544 127.792 167.794C122.543 173.044 115.424 175.995 108 176.001Z" fill="#009EFF"/>
<path d="M57 125C57 96.8335 79.8335 74 108 74C136.167 74 159 96.8335 159 125C159 136.889 154.932 147.827 148.112 156.5C144.617 160.945 140.399 164.794 135.635 167.871L113 188.5L98 175.02C74.6216 170.372 57 149.744 57 125Z" fill="#0053FF"/>
<path fill-rule="evenodd" clip-rule="evenodd" d="M108 176H36C28.8799 176 21.9197 173.889 15.9995 169.933C10.0793 165.977 5.46511 160.355 2.74035 153.777C0.0155983 147.198 -0.697322 139.96 0.691746 132.977C2.08081 125.993 5.50948 119.579 10.5442 114.544C15.5789 109.509 21.9935 106.081 28.9768 104.692C35.9601 103.303 43.1985 104.016 49.7766 106.74C56.3548 109.465 61.9772 114.079 65.9329 119.999C69.8887 125.92 72 132.88 72 140C72.008 149.545 75.8034 158.697 82.5529 165.447C89.3025 172.197 98.4547 175.992 108 176Z" fill="#2D00FF"/>
<path d="M66 176L126 116L96 176H126L66 236L96 176H66Z" fill="white"/>
<path d="M66 236L141.5 163.5L97.5 173L66 236Z" fill="#0053FF"/>
</g>
<defs>
<clipPath id="clip0_2674_46672">
<rect width="192" height="207" fill="white" transform="translate(0 29)"/>
</clipPath>
</defs>
</svg>
