<svg width="406" height="205" viewBox="0 0 406 205" fill="none" xmlns="http://www.w3.org/2000/svg">
<path d="M210.451 85.377C200.137 85.377 192.649 89.1919 187.562 95.6912V59.0971H169.336V158H187.562V149.664C192.649 156.163 200.137 159.978 210.451 159.978C229.384 159.978 244.926 143.73 244.926 122.678C244.926 101.625 229.384 85.377 210.451 85.377ZM207.06 142.599C195.899 142.599 187.562 134.546 187.562 122.678C187.562 110.809 195.899 102.756 207.06 102.756C218.364 102.756 226.7 110.809 226.7 122.678C226.7 134.546 218.364 142.599 207.06 142.599ZM285.549 159.978C306.318 159.978 322.991 143.73 322.991 122.678C322.991 101.625 306.318 85.377 285.549 85.377C264.779 85.377 248.248 101.625 248.248 122.678C248.248 143.73 264.779 159.978 285.549 159.978ZM285.549 142.176C274.811 142.176 266.475 134.122 266.475 122.678C266.475 111.233 274.811 103.18 285.549 103.18C296.428 103.18 304.764 111.233 304.764 122.678C304.764 134.122 296.428 142.176 285.549 142.176ZM329.954 158H348.181V54.8584H329.954V158ZM399.413 104.875V87.3551H383.447V67.5745L365.221 73.0848V87.3551H352.929V104.875H365.221V134.263C365.221 153.337 373.84 160.826 399.413 158V141.469C388.958 142.034 383.447 141.893 383.447 134.263V104.875H399.413Z" fill="white"/>
<path fill-rule="evenodd" clip-rule="evenodd" d="M126.281 0L79.9275 46.5952C75.2855 45.5518 70.457 45.0011 65.5 45.0011C29.3253 45.0011 0 74.3264 0 110.501C0 146.676 29.3253 176.001 65.5 176.001C101.675 176.001 131 146.676 131 110.501C131 94.4292 125.211 79.7092 115.605 68.3124L69.0004 115.16L99.2468 54.3523C99.2466 54.3521 99.2463 54.352 99.2461 54.3519L126.281 0Z" fill="url(#paint0_linear_7934_58574)"/>
<defs>
<linearGradient id="paint0_linear_7934_58574" x1="0" y1="176.001" x2="168.597" y2="50.5122" gradientUnits="userSpaceOnUse">
<stop stop-color="#03C17D"/>
<stop offset="1" stop-color="#97E81C"/>
</linearGradient>
</defs>
</svg>
